<svg width="32" height="32" viewBox="0 0 32 32" fill="none" xmlns="http://www.w3.org/2000/svg">
<circle cx="16" cy="16" r="15.5" stroke="#00B281"/>
<path d="M16 5.5C16.2841 5.5 16.5569 5.61259 16.7578 5.81348C16.9587 6.01438 17.0713 6.28718 17.0713 6.57129V14.9287H25.4287C25.7128 14.9287 25.9856 15.0413 26.1865 15.2422C26.3874 15.4431 26.5 15.7159 26.5 16C26.5 16.2841 26.3874 16.5569 26.1865 16.7578C25.9856 16.9587 25.7128 17.0713 25.4287 17.0713H17.0713V25.4287C17.0713 25.7128 16.9587 25.9856 16.7578 26.1865C16.5569 26.3874 16.2841 26.5 16 26.5C15.7159 26.5 15.4431 26.3874 15.2422 26.1865C15.0413 25.9856 14.9287 25.7128 14.9287 25.4287V17.0713H6.57129C6.28718 17.0713 6.01438 16.9587 5.81348 16.7578C5.61259 16.5569 5.5 16.2841 5.5 16C5.5 15.7159 5.61259 15.4431 5.81348 15.2422C6.01438 15.0413 6.28718 14.9287 6.57129 14.9287H14.9287V6.57129C14.9287 6.28718 15.0413 6.01438 15.2422 5.81348C15.4181 5.63759 15.6491 5.52914 15.8945 5.50488L16 5.5Z" fill="#00B281" stroke="#00B281"/>
</svg>
