<svg width="32" height="32" viewBox="0 0 32 32" fill="none" xmlns="http://www.w3.org/2000/svg">
<circle cx="16" cy="16" r="15.5" stroke="#78A095"/>
<path d="M25.4286 17.5714H17.5714V25.4286C17.5714 25.8453 17.4059 26.245 17.1112 26.5397C16.8165 26.8344 16.4168 27 16 27C15.5832 27 15.1835 26.8344 14.8888 26.5397C14.5941 26.245 14.4286 25.8453 14.4286 25.4286V17.5714H6.57143C6.15466 17.5714 5.75496 17.4059 5.46026 17.1112C5.16556 16.8165 5 16.4168 5 16C5 15.5832 5.16556 15.1835 5.46026 14.8888C5.75496 14.5941 6.15466 14.4286 6.57143 14.4286H14.4286V6.57143C14.4286 6.15466 14.5941 5.75496 14.8888 5.46026C15.1835 5.16556 15.5832 5 16 5C16.4168 5 16.8165 5.16556 17.1112 5.46026C17.4059 5.75496 17.5714 6.15466 17.5714 6.57143V14.4286H25.4286C25.8453 14.4286 26.245 14.5941 26.5397 14.8888C26.8344 15.1835 27 15.5832 27 16C27 16.4168 26.8344 16.8165 26.5397 17.1112C26.245 17.4059 25.8453 17.5714 25.4286 17.5714Z" fill="#78A095"/>
</svg>
