<svg width="40" height="40" viewBox="0 0 40 40" fill="none" xmlns="http://www.w3.org/2000/svg">
<g clip-path="url(#clip0_2190_1928)">
<path d="M34.0112 27.2444C32.2258 25.31 30.0592 23.7662 27.6478 22.7104C25.2364 21.6545 22.6325 21.1094 20.0001 21.1094C17.3677 21.1094 14.7638 21.6545 12.3524 22.7104C9.94101 23.7662 7.77439 25.31 5.989 27.2444C5.71245 27.5487 5.55811 27.9444 5.55566 28.3555V35.0222C5.56151 35.4604 5.73968 35.8786 6.05161 36.1864C6.36354 36.4942 6.78413 36.6667 7.22233 36.6667H32.7779C33.2199 36.6667 33.6438 36.4911 33.9564 36.1785C34.269 35.8659 34.4446 35.442 34.4446 35V28.3333C34.4367 27.9299 34.2827 27.543 34.0112 27.2444Z" fill="black"/>
<path d="M19.9999 18.8889C24.2955 18.8889 27.7777 15.4067 27.7777 11.1112C27.7777 6.8156 24.2955 3.33337 19.9999 3.33337C15.7044 3.33337 12.2222 6.8156 12.2222 11.1112C12.2222 15.4067 15.7044 18.8889 19.9999 18.8889Z" fill="black"/>
</g>
<defs>
<clipPath id="clip0_2190_1928">
<rect width="40" height="40" fill="white"/>
</clipPath>
</defs>
</svg>
