<svg width="399" height="128" viewBox="0 0 399 128" fill="none" xmlns="http://www.w3.org/2000/svg">
<rect width="128" height="128" rx="64" fill="#1E88E5"/>
<path d="M26.5227 88L13.2045 41.4545H23.9545L31.6591 73.7955H32.0455L40.5455 41.4545H49.75L58.2273 73.8636H58.6364L66.3409 41.4545H77.0909L63.7727 88H54.1818L45.3182 57.5682H44.9545L36.1136 88H26.5227ZM82.358 88V41.4545H92.1989V79.8864H112.153V88H82.358Z" fill="white"/>
<path d="M159.346 83L148.941 46.6364H157.339L163.359 71.9027H163.661L170.301 46.6364H177.492L184.115 71.956H184.435L190.454 46.6364H198.852L188.447 83H180.955L174.03 59.2251H173.746L166.839 83H159.346ZM212.218 83.5327C209.46 83.5327 207.075 82.9467 205.062 81.7749C203.062 80.5911 201.517 78.9458 200.428 76.8388C199.339 74.7199 198.795 72.2637 198.795 69.4702C198.795 66.6529 199.339 64.1908 200.428 62.0838C201.517 59.965 203.062 58.3196 205.062 57.1477C207.075 55.964 209.46 55.3722 212.218 55.3722C214.976 55.3722 217.355 55.964 219.356 57.1477C221.368 58.3196 222.919 59.965 224.008 62.0838C225.097 64.1908 225.641 66.6529 225.641 69.4702C225.641 72.2637 225.097 74.7199 224.008 76.8388C222.919 78.9458 221.368 80.5911 219.356 81.7749C217.355 82.9467 214.976 83.5327 212.218 83.5327ZM212.253 77.6733C213.508 77.6733 214.556 77.3182 215.396 76.608C216.237 75.8859 216.87 74.9034 217.296 73.6605C217.734 72.4176 217.953 71.0031 217.953 69.4169C217.953 67.8307 217.734 66.4162 217.296 65.1733C216.87 63.9304 216.237 62.9479 215.396 62.2259C214.556 61.5038 213.508 61.1428 212.253 61.1428C210.987 61.1428 209.921 61.5038 209.057 62.2259C208.205 62.9479 207.56 63.9304 207.122 65.1733C206.696 66.4162 206.483 67.8307 206.483 69.4169C206.483 71.0031 206.696 72.4176 207.122 73.6605C207.56 74.9034 208.205 75.8859 209.057 76.608C209.921 77.3182 210.987 77.6733 212.253 77.6733ZM230.559 83V55.7273H237.893V60.4858H238.177C238.674 58.7931 239.508 57.5147 240.68 56.6506C241.852 55.7746 243.202 55.3366 244.729 55.3366C245.107 55.3366 245.516 55.3603 245.954 55.4077C246.392 55.455 246.776 55.5201 247.108 55.603V62.3146C246.753 62.2081 246.261 62.1134 245.634 62.0305C245.007 61.9477 244.433 61.9062 243.912 61.9062C242.799 61.9062 241.805 62.1489 240.929 62.6342C240.065 63.1077 239.378 63.7706 238.869 64.6229C238.372 65.4751 238.123 66.4576 238.123 67.5703V83H230.559ZM257.872 75.152L257.89 66.0788H258.991L267.727 55.7273H276.409L264.673 69.4347H262.879L257.872 75.152ZM251.018 83V46.6364H258.582V83H251.018ZM268.064 83L260.038 71.1214L265.081 65.777L276.924 83H268.064ZM280.262 83V46.6364H287.95V76.6612H303.54V83H280.262ZM308.489 83V55.7273H316.053V83H308.489ZM312.289 52.2116C311.164 52.2116 310.2 51.8388 309.395 51.093C308.602 50.3355 308.205 49.4299 308.205 48.3764C308.205 47.3348 308.602 46.4411 309.395 45.6953C310.2 44.9377 311.164 44.5589 312.289 44.5589C313.413 44.5589 314.372 44.9377 315.165 45.6953C315.97 46.4411 316.373 47.3348 316.373 48.3764C316.373 49.4299 315.97 50.3355 315.165 51.093C314.372 51.8388 313.413 52.2116 312.289 52.2116ZM329.676 67.233V83H322.112V55.7273H329.321V60.5391H329.641C330.244 58.9529 331.256 57.6982 332.677 56.7749C334.097 55.8397 335.82 55.3722 337.844 55.3722C339.738 55.3722 341.389 55.7865 342.798 56.6151C344.206 57.4437 345.301 58.6274 346.082 60.1662C346.864 61.6932 347.254 63.5161 347.254 65.6349V83H339.69V66.9844C339.702 65.3153 339.276 64.0133 338.412 63.0781C337.548 62.1312 336.358 61.6577 334.843 61.6577C333.825 61.6577 332.925 61.8767 332.144 62.3146C331.375 62.7526 330.771 63.3918 330.333 64.2322C329.907 65.0608 329.688 66.0611 329.676 67.233ZM365.645 83.5327C362.839 83.5327 360.425 82.9645 358.4 81.8281C356.388 80.6799 354.837 79.0582 353.748 76.9631C352.659 74.8561 352.115 72.3643 352.115 69.4879C352.115 66.6825 352.659 64.2204 353.748 62.1016C354.837 59.9827 356.37 58.3314 358.347 57.1477C360.336 55.964 362.668 55.3722 365.343 55.3722C367.142 55.3722 368.817 55.6622 370.368 56.2422C371.93 56.8104 373.291 57.6686 374.452 58.8168C375.623 59.965 376.535 61.4091 377.186 63.1491C377.837 64.8774 378.162 66.9015 378.162 69.2216V71.299H355.133V66.6115H371.042C371.042 65.5225 370.806 64.5578 370.332 63.7173C369.859 62.8769 369.202 62.2199 368.361 61.7464C367.533 61.2611 366.568 61.0185 365.467 61.0185C364.319 61.0185 363.301 61.2848 362.413 61.8175C361.537 62.3383 360.851 63.0426 360.354 63.9304C359.856 64.8063 359.602 65.7829 359.59 66.8601V71.3168C359.59 72.6662 359.839 73.8321 360.336 74.8146C360.845 75.7971 361.561 76.5547 362.484 77.0874C363.407 77.62 364.502 77.8864 365.769 77.8864C366.609 77.8864 367.379 77.768 368.077 77.5312C368.776 77.2945 369.373 76.9394 369.871 76.4659C370.368 75.9924 370.747 75.4124 371.007 74.7259L378.003 75.1875C377.648 76.8684 376.92 78.3362 375.819 79.5909C374.73 80.8338 373.321 81.8045 371.593 82.5028C369.876 83.1894 367.894 83.5327 365.645 83.5327Z" fill="#434343"/>
</svg>
