<svg width="45" height="45" viewBox="0 0 45 45" fill="none" xmlns="http://www.w3.org/2000/svg">
<g clip-path="url(#clip0_2248_1922)">
<path d="M15.0002 20.175H13.9127C12.4286 20.1214 10.9494 20.3733 9.56676 20.9152C8.18413 21.4571 6.92762 22.2773 5.8752 23.325L5.5752 23.675V34.025H10.6752V28.15L11.3627 27.375L11.6752 27.0125C13.3026 25.3407 15.3287 24.1104 17.5627 23.4375C16.4446 22.5861 15.5625 21.4631 15.0002 20.175Z" fill="black"/>
<path d="M39.1749 23.2874C38.1225 22.2397 36.866 21.4195 35.4833 20.8776C34.1007 20.3357 32.6215 20.0838 31.1374 20.1374C30.6823 20.1399 30.2275 20.1649 29.7749 20.2124C29.2021 21.4208 28.3441 22.4718 27.2749 23.2749C29.6601 23.9342 31.8208 25.2306 33.5249 27.0249L33.8374 27.3749L34.5124 28.1499V34.0374H39.4374V23.6374L39.1749 23.2874Z" fill="black"/>
<path d="M13.8748 17.7375H14.2623C14.0823 16.1916 14.3536 14.6265 15.0434 13.2314C15.7332 11.8362 16.8121 10.6705 18.1498 9.875C17.6649 9.13419 16.9959 8.53201 16.2083 8.12743C15.4208 7.72286 14.5416 7.52976 13.657 7.56703C12.7724 7.60431 11.9126 7.8707 11.1619 8.3401C10.4111 8.8095 9.79516 9.46583 9.37428 10.2448C8.95341 11.0238 8.74206 11.8987 8.76093 12.7839C8.77979 13.6691 9.02823 14.5343 9.48191 15.2946C9.93559 16.055 10.579 16.6845 11.349 17.1214C12.1191 17.5584 12.9894 17.7879 13.8748 17.7875V17.7375Z" fill="black"/>
<path d="M30.5374 16.7999C30.5516 17.0873 30.5516 17.3751 30.5374 17.6624C30.7772 17.7009 31.0195 17.7218 31.2624 17.7249H31.4999C32.3814 17.6779 33.2357 17.4035 33.9797 16.9283C34.7237 16.4531 35.3319 15.7934 35.7452 15.0133C36.1585 14.2333 36.3628 13.3595 36.3382 12.4771C36.3136 11.5947 36.0609 10.7337 35.6047 9.97789C35.1486 9.22212 34.5045 8.59733 33.7352 8.16436C32.9659 7.73139 32.0976 7.505 31.2148 7.50722C30.3321 7.50944 29.4649 7.7402 28.6978 8.17703C27.9307 8.61387 27.2898 9.24189 26.8374 9.99995C27.9688 10.7386 28.899 11.7466 29.5448 12.9334C30.1906 14.1202 30.5317 15.4488 30.5374 16.7999Z" fill="black"/>
<path d="M22.3375 22.4C25.4234 22.4 27.925 19.8984 27.925 16.8125C27.925 13.7266 25.4234 11.225 22.3375 11.225C19.2516 11.225 16.75 13.7266 16.75 16.8125C16.75 19.8984 19.2516 22.4 22.3375 22.4Z" fill="black"/>
<path d="M22.6375 25.375C21.0051 25.3098 19.3764 25.5751 17.8492 26.1551C16.3219 26.7351 14.9276 27.6177 13.75 28.75L13.4375 29.1V37.0125C13.4424 37.2702 13.498 37.5245 13.6011 37.7607C13.7043 37.9969 13.853 38.2105 14.0387 38.3893C14.2244 38.5681 14.4436 38.7085 14.6836 38.8025C14.9236 38.8966 15.1798 38.9424 15.4375 38.9375H29.8C30.0577 38.9424 30.3139 38.8966 30.5539 38.8025C30.7939 38.7085 31.0131 38.5681 31.1988 38.3893C31.3845 38.2105 31.5332 37.9969 31.6364 37.7607C31.7395 37.5245 31.7951 37.2702 31.8 37.0125V29.125L31.5 28.75C30.3304 27.6136 28.941 26.7281 27.4171 26.1478C25.8931 25.5674 24.2667 25.3045 22.6375 25.375Z" fill="black"/>
</g>
<defs>
<clipPath id="clip0_2248_1922">
<rect width="45" height="45" fill="white"/>
</clipPath>
</defs>
</svg>
