<svg width="47" height="48" viewBox="0 0 47 48" fill="none" xmlns="http://www.w3.org/2000/svg">
<path d="M7.83334 35.75C7.27848 35.75 6.8137 35.562 6.43901 35.186C6.06431 34.81 5.87631 34.3452 5.87501 33.7917C5.8737 33.2381 6.0617 32.7733 6.43901 32.3973C6.81631 32.0213 7.28109 31.8333 7.83334 31.8333H39.1667C39.7215 31.8333 40.187 32.0213 40.563 32.3973C40.939 32.7733 41.1263 33.2381 41.125 33.7917C41.1237 34.3452 40.9357 34.8107 40.561 35.188C40.1863 35.5653 39.7215 35.7526 39.1667 35.75H7.83334ZM7.83334 25.9583C7.27848 25.9583 6.8137 25.7703 6.43901 25.3943C6.06431 25.0183 5.87631 24.5536 5.87501 24C5.8737 23.4464 6.0617 22.9817 6.43901 22.6057C6.81631 22.2297 7.28109 22.0417 7.83334 22.0417H39.1667C39.7215 22.0417 40.187 22.2297 40.563 22.6057C40.939 22.9817 41.1263 23.4464 41.125 24C41.1237 24.5536 40.9357 25.019 40.561 25.3963C40.1863 25.7736 39.7215 25.9609 39.1667 25.9583H7.83334ZM7.83334 16.1667C7.27848 16.1667 6.8137 15.9787 6.43901 15.6027C6.06431 15.2267 5.87631 14.7619 5.87501 14.2083C5.8737 13.6548 6.0617 13.19 6.43901 12.814C6.81631 12.438 7.28109 12.25 7.83334 12.25H39.1667C39.7215 12.25 40.187 12.438 40.563 12.814C40.939 13.19 41.1263 13.6548 41.125 14.2083C41.1237 14.7619 40.9357 15.2273 40.561 15.6046C40.1863 15.9819 39.7215 16.1693 39.1667 16.1667H7.83334Z" fill="#0D497D"/>
</svg>
