<svg width="47" height="47" viewBox="0 0 47 47" fill="none" xmlns="http://www.w3.org/2000/svg">
<path d="M7.83334 35.25C7.27848 35.25 6.8137 35.062 6.43901 34.686C6.06431 34.31 5.87631 33.8452 5.87501 33.2917C5.8737 32.7381 6.0617 32.2733 6.43901 31.8973C6.81631 31.5213 7.28109 31.3333 7.83334 31.3333H39.1667C39.7215 31.3333 40.187 31.5213 40.563 31.8973C40.939 32.2733 41.1263 32.7381 41.125 33.2917C41.1237 33.8452 40.9357 34.3107 40.561 34.688C40.1863 35.0653 39.7215 35.2526 39.1667 35.25H7.83334ZM7.83334 25.4583C7.27848 25.4583 6.8137 25.2703 6.43901 24.8943C6.06431 24.5183 5.87631 24.0536 5.87501 23.5C5.8737 22.9464 6.0617 22.4817 6.43901 22.1057C6.81631 21.7297 7.28109 21.5417 7.83334 21.5417H39.1667C39.7215 21.5417 40.187 21.7297 40.563 22.1057C40.939 22.4817 41.1263 22.9464 41.125 23.5C41.1237 24.0536 40.9357 24.519 40.561 24.8963C40.1863 25.2736 39.7215 25.4609 39.1667 25.4583H7.83334ZM7.83334 15.6667C7.27848 15.6667 6.8137 15.4787 6.43901 15.1027C6.06431 14.7267 5.87631 14.2619 5.87501 13.7083C5.8737 13.1548 6.0617 12.69 6.43901 12.314C6.81631 11.938 7.28109 11.75 7.83334 11.75H39.1667C39.7215 11.75 40.187 11.938 40.563 12.314C40.939 12.69 41.1263 13.1548 41.125 13.7083C41.1237 14.2619 40.9357 14.7273 40.561 15.1046C40.1863 15.4819 39.7215 15.6693 39.1667 15.6667H7.83334Z" fill="#78A095"/>
</svg>
