<svg width="36" height="36" viewBox="0 0 36 36" fill="none" xmlns="http://www.w3.org/2000/svg">
<path d="M23.25 18C23.25 18.6894 23.1142 19.3721 22.8504 20.0091C22.5865 20.646 22.1998 21.2248 21.7123 21.7123C21.2248 22.1998 20.646 22.5865 20.0091 22.8504C19.3721 23.1142 18.6894 23.25 18 23.25C17.3106 23.25 16.6279 23.1142 15.9909 22.8504C15.354 22.5865 14.7752 22.1998 14.2877 21.7123C13.8002 21.2248 13.4135 20.646 13.1496 20.0091C12.8858 19.3721 12.75 18.6894 12.75 18C12.75 16.6076 13.3031 15.2723 14.2877 14.2877C15.2723 13.3031 16.6076 12.75 18 12.75C19.3924 12.75 20.7277 13.3031 21.7123 14.2877C22.6969 15.2723 23.25 16.6076 23.25 18Z" fill="#AFAFAF"/>
<path d="M17.5 5.14282C22.5539 5.14282 26.5182 7.46316 29.3603 10.0452C32.1965 12.6211 33.9724 15.5057 34.6852 16.7914C34.8914 17.1589 35 17.5757 35 18C35 18.4242 34.8914 18.841 34.6852 19.2085C33.9724 20.4942 32.1965 23.3788 29.3603 25.9563C26.5196 28.5368 22.5539 30.8571 17.5 30.8571C12.4461 30.8571 8.48183 28.5368 5.63972 25.9563C2.8035 23.3818 1.02755 20.4958 0.314815 19.21C0.108566 18.8425 0 18.4257 0 18.0015C0 17.5772 0.108566 17.1605 0.314815 16.7929C1.02755 15.5072 2.8035 12.6227 5.63972 10.0437C8.48035 7.46316 12.4461 5.14282 17.5 5.14282ZM2.23361 17.9168C2.2175 17.9414 2.2088 17.9703 2.20857 18C2.20955 18.0302 2.2179 18.0585 2.23361 18.0847C2.88302 19.2554 4.5176 21.907 7.10348 24.2561C9.68199 26.5991 13.1485 28.5882 17.5 28.5882C21.8515 28.5882 25.3195 26.5991 27.8965 24.2561C30.4824 21.907 32.117 19.2554 32.7664 18.0847C32.7828 18.0596 32.7915 18.0301 32.7914 18C32.7915 17.9698 32.7828 17.9403 32.7664 17.9153C32.117 16.746 30.4824 14.0929 27.8965 11.7438C25.318 9.4008 21.8515 7.41173 17.5 7.41173C13.1485 7.41173 9.68052 9.39929 7.10348 11.7453C4.5176 14.0929 2.88302 16.746 2.23361 17.9168Z" fill="#AFAFAF"/>
</svg>
