<svg width="36" height="36" viewBox="0 0 36 36" fill="none" xmlns="http://www.w3.org/2000/svg">
<path d="M17.745 13.5L22.5 18.24V18C22.5 16.8065 22.0259 15.6619 21.182 14.818C20.3381 13.9741 19.1935 13.5 18 13.5H17.745ZM11.295 14.7L13.62 17.025C13.545 17.34 13.5 17.655 13.5 18C13.5 19.1935 13.9741 20.3381 14.818 21.182C15.6619 22.0259 16.8065 22.5 18 22.5C18.33 22.5 18.66 22.455 18.975 22.38L21.3 24.705C20.295 25.2 19.185 25.5 18 25.5C16.0109 25.5 14.1032 24.7098 12.6967 23.3033C11.2902 21.8968 10.5 19.9891 10.5 18C10.5 16.815 10.8 15.705 11.295 14.7ZM3 6.405L6.42 9.825L7.095 10.5C4.62 12.45 2.67 15 1.5 18C4.095 24.585 10.5 29.25 18 29.25C20.325 29.25 22.545 28.8 24.57 27.99L25.215 28.62L29.595 33L31.5 31.095L4.905 4.5M18 10.5C19.9891 10.5 21.8968 11.2902 23.3033 12.6967C24.7098 14.1032 25.5 16.0109 25.5 18C25.5 18.96 25.305 19.89 24.96 20.73L29.355 25.125C31.605 23.25 33.405 20.79 34.5 18C31.905 11.415 25.5 6.75 18 6.75C15.9 6.75 13.89 7.125 12 7.8L15.255 11.025C16.11 10.695 17.025 10.5 18 10.5Z" fill="#AFAFAF"/>
</svg>
