<svg width="37" height="37" viewBox="0 0 37 37" fill="none" xmlns="http://www.w3.org/2000/svg">
<path d="M33.5833 20.6667H20.6667V33.5833C20.6667 34.2685 20.3945 34.9256 19.91 35.41C19.4256 35.8945 18.7685 36.1667 18.0833 36.1667C17.3982 36.1667 16.7411 35.8945 16.2566 35.41C15.7722 34.9256 15.5 34.2685 15.5 33.5833V20.6667H2.58333C1.89819 20.6667 1.24111 20.3945 0.756641 19.91C0.272172 19.4256 0 18.7685 0 18.0833C0 17.3982 0.272172 16.7411 0.756641 16.2566C1.24111 15.7722 1.89819 15.5 2.58333 15.5H15.5V2.58333C15.5 1.89819 15.7722 1.24111 16.2566 0.75664C16.7411 0.272171 17.3982 0 18.0833 0C18.7685 0 19.4256 0.272171 19.91 0.75664C20.3945 1.24111 20.6667 1.89819 20.6667 2.58333V15.5H33.5833C34.2685 15.5 34.9256 15.7722 35.41 16.2566C35.8945 16.7411 36.1667 17.3982 36.1667 18.0833C36.1667 18.7685 35.8945 19.4256 35.41 19.91C34.9256 20.3945 34.2685 20.6667 33.5833 20.6667Z" fill="#7FCDB7"/>
</svg>
